<?xml version="1.0" encoding="utf-8"?>
<svg xmlns="http://www.w3.org/2000/svg" fill="none" height="1024" viewBox="0 0 1024 1024" width="1024">
<g clip-path="url(#clip0_196_304)">
<rect fill="#D9E7FD" height="1024" rx="16" width="1024"/>
<g opacity="0.4">
<rect height="938" opacity="0.720266" rx="72" stroke="#0163C9" stroke-opacity="0.6" width="682" x="172" y="44"/>
<rect height="810" opacity="0.720266" rx="72" stroke="#0163C9" stroke-opacity="0.6" width="810" x="108" y="108"/>
<rect height="682" opacity="0.720266" rx="72" stroke="#0163C9" stroke-opacity="0.6" width="938" x="44" y="172"/>
<path clip-rule="evenodd" d="M513 982C772.022 982 982 772.022 982 513C982 253.978 772.022 44 513 44C253.978 44 44 253.978 44 513C44 772.022 253.978 982 513 982Z" fill-rule="evenodd" stroke="#0163C9" stroke-opacity="0.6"/>
<path clip-rule="evenodd" d="M513 724C629.532 724 724 629.532 724 513C724 396.468 629.532 302 513 302C396.468 302 302 396.468 302 513C302 629.532 396.468 724 513 724Z" fill-rule="evenodd" stroke="#0163C9" stroke-opacity="0.6"/>
<rect height="298" stroke="#0163C9" stroke-opacity="0.6" width="298" x="364" y="364"/>
<path d="M365 1V1025" stroke="#0163C9" stroke-linecap="square" stroke-opacity="0.6"/>
<path d="M513 0V1024" stroke="#0163C9" stroke-linecap="square" stroke-opacity="0.6"/>
<path d="M661 0V1024" stroke="#0163C9" stroke-linecap="square" stroke-opacity="0.6"/>
<path d="M1025 365H1" stroke="#0163C9" stroke-linecap="square" stroke-opacity="0.6"/>
<path d="M1024 513H0" stroke="#0163C9" stroke-linecap="square" stroke-opacity="0.6"/>
<path d="M1025 661H1" stroke="#0163C9" stroke-linecap="square" stroke-opacity="0.6"/>
<path d="M1 1L1025 1025" stroke="#0163C9" stroke-linecap="square" stroke-opacity="0.6"/>
<path d="M1025 1L1 1025" stroke="#0163C9" stroke-linecap="square" stroke-opacity="0.6"/>
</g>
</g>
<g opacity="0.6">
<rect fill="#D9E7FD" height="294.63" transform="translate(344 365)" width="335.425"/>
</g>
<defs>
<clipPath id="clip0_196_304">
<rect fill="white" height="1024" rx="16" width="1024"/>
</clipPath>
</defs>
</svg>